<svg width="21" height="21" viewBox="0 0 21 21" fill="none" xmlns="http://www.w3.org/2000/svg">
<path d="M12.4166 1.66666H5.74992C5.30789 1.66666 4.88397 1.84225 4.57141 2.15481C4.25885 2.46737 4.08325 2.8913 4.08325 3.33332V16.6667C4.08325 17.1087 4.25885 17.5326 4.57141 17.8452C4.88397 18.1577 5.30789 18.3333 5.74992 18.3333H15.7499C16.1919 18.3333 16.6159 18.1577 16.9284 17.8452C17.241 17.5326 17.4166 17.1087 17.4166 16.6667V6.66666L12.4166 1.66666Z" stroke="black" stroke-width="1.66667" stroke-linecap="round" stroke-linejoin="round"/>
<path d="M12.4167 1.66666V6.66666H17.4167" stroke="black" stroke-width="1.66667" stroke-linecap="round" stroke-linejoin="round"/>
<path d="M14.0834 10.8333H7.41675" stroke="black" stroke-width="1.66667" stroke-linecap="round" stroke-linejoin="round"/>
<path d="M14.0834 14.1667H7.41675" stroke="black" stroke-width="1.66667" stroke-linecap="round" stroke-linejoin="round"/>
<path d="M9.08341 7.5H8.25008H7.41675" stroke="black" stroke-width="1.66667" stroke-linecap="round" stroke-linejoin="round"/>
</svg>
