<svg width="21" height="21" viewBox="0 0 21 21" fill="none" xmlns="http://www.w3.org/2000/svg">
<g clip-path="url(#clip0_17_424)">
<path d="M10.3334 13C11.7141 13 12.8334 11.8807 12.8334 10.5C12.8334 9.11929 11.7141 8 10.3334 8C8.95266 8 7.83337 9.11929 7.83337 10.5C7.83337 11.8807 8.95266 13 10.3334 13Z" stroke="black" stroke-width="1.66667" stroke-linecap="round" stroke-linejoin="round"/>
<path d="M16.5 13.0002C16.3891 13.2515 16.356 13.5303 16.405 13.8007C16.454 14.071 16.5829 14.3204 16.775 14.5168L16.825 14.5668C16.98 14.7216 17.1029 14.9054 17.1868 15.1078C17.2707 15.3101 17.3138 15.527 17.3138 15.746C17.3138 15.965 17.2707 16.1819 17.1868 16.3842C17.1029 16.5866 16.98 16.7704 16.825 16.9252C16.6702 17.0801 16.4864 17.2031 16.2841 17.2869C16.0818 17.3708 15.8649 17.414 15.6459 17.414C15.4268 17.414 15.21 17.3708 15.0076 17.2869C14.8053 17.2031 14.6215 17.0801 14.4667 16.9252L14.4167 16.8752C14.2203 16.683 13.9708 16.5542 13.7005 16.5052C13.4302 16.4561 13.1514 16.4892 12.9 16.6002C12.6535 16.7058 12.4433 16.8812 12.2953 17.1048C12.1472 17.3284 12.0678 17.5903 12.0667 17.8585V18.0002C12.0667 18.4422 11.8911 18.8661 11.5785 19.1787C11.266 19.4912 10.842 19.6668 10.4 19.6668C9.95799 19.6668 9.53407 19.4912 9.22151 19.1787C8.90895 18.8661 8.73335 18.4422 8.73335 18.0002V17.9252C8.7269 17.6493 8.63762 17.3818 8.47711 17.1574C8.31661 16.933 8.0923 16.7621 7.83335 16.6668C7.58201 16.5559 7.30319 16.5228 7.03286 16.5718C6.76253 16.6208 6.51309 16.7497 6.31669 16.9418L6.26669 16.9918C6.1119 17.1468 5.92808 17.2697 5.72575 17.3536C5.52342 17.4375 5.30655 17.4806 5.08752 17.4806C4.86849 17.4806 4.65162 17.4375 4.44929 17.3536C4.24696 17.2697 4.06314 17.1468 3.90835 16.9918C3.75339 16.837 3.63046 16.6532 3.54659 16.4509C3.46271 16.2486 3.41954 16.0317 3.41954 15.8127C3.41954 15.5936 3.46271 15.3768 3.54659 15.1744C3.63046 14.9721 3.75339 14.7883 3.90835 14.6335L3.95835 14.5835C4.15047 14.3871 4.27934 14.1376 4.32836 13.8673C4.37737 13.597 4.34428 13.3182 4.23335 13.0668C4.12772 12.8204 3.95232 12.6101 3.72874 12.4621C3.50517 12.314 3.24318 12.2346 2.97502 12.2335H2.83335C2.39133 12.2335 1.9674 12.0579 1.65484 11.7453C1.34228 11.4328 1.16669 11.0089 1.16669 10.5668C1.16669 10.1248 1.34228 9.70088 1.65484 9.38832C1.9674 9.07576 2.39133 8.90016 2.83335 8.90016H2.90835C3.18418 8.89371 3.45169 8.80443 3.6761 8.64392C3.90052 8.48342 4.07145 8.25911 4.16669 8.00016C4.27762 7.74882 4.31071 7.47 4.26169 7.19967C4.21268 6.92934 4.0838 6.6799 3.89169 6.4835L3.84169 6.4335C3.68673 6.27871 3.56379 6.09489 3.47992 5.89256C3.39605 5.69023 3.35288 5.47336 3.35288 5.25433C3.35288 5.0353 3.39605 4.81843 3.47992 4.6161C3.56379 4.41377 3.68673 4.22995 3.84169 4.07516C3.99648 3.9202 4.18029 3.79727 4.38262 3.7134C4.58495 3.62952 4.80183 3.58635 5.02085 3.58635C5.23988 3.58635 5.45676 3.62952 5.65909 3.7134C5.86142 3.79727 6.04523 3.9202 6.20002 4.07516L6.25002 4.12516C6.44642 4.31728 6.69587 4.44615 6.9662 4.49517C7.23653 4.54418 7.51534 4.51109 7.76669 4.40016H7.83335C8.07983 4.29453 8.29003 4.11913 8.4381 3.89555C8.58616 3.67198 8.66562 3.40999 8.66669 3.14183V3.00016C8.66669 2.55814 8.84228 2.13421 9.15484 1.82165C9.4674 1.50909 9.89133 1.3335 10.3334 1.3335C10.7754 1.3335 11.1993 1.50909 11.5119 1.82165C11.8244 2.13421 12 2.55814 12 3.00016V3.07516C12.0011 3.34332 12.0805 3.60531 12.2286 3.82888C12.3767 4.05246 12.5869 4.22786 12.8334 4.3335C13.0847 4.44443 13.3635 4.47752 13.6338 4.4285C13.9042 4.37948 14.1536 4.25061 14.35 4.0585L14.4 4.0085C14.5548 3.85354 14.7386 3.7306 14.941 3.64673C15.1433 3.56286 15.3602 3.51969 15.5792 3.51969C15.7982 3.51969 16.0151 3.56286 16.2174 3.64673C16.4198 3.7306 16.6036 3.85354 16.7584 4.0085C16.9133 4.16328 17.0362 4.3471 17.1201 4.54943C17.204 4.75176 17.2472 4.96864 17.2472 5.18766C17.2472 5.40669 17.204 5.62357 17.1201 5.8259C17.0362 6.02823 16.9133 6.21204 16.7584 6.36683L16.7084 6.41683C16.5162 6.61323 16.3874 6.86268 16.3384 7.13301C16.2893 7.40333 16.3224 7.68215 16.4334 7.9335V8.00016C16.539 8.24664 16.7144 8.45684 16.938 8.60491C17.1615 8.75297 17.4235 8.83243 17.6917 8.8335H17.8334C18.2754 8.8335 18.6993 9.00909 19.0119 9.32165C19.3244 9.63421 19.5 10.0581 19.5 10.5002C19.5 10.9422 19.3244 11.3661 19.0119 11.6787C18.6993 11.9912 18.2754 12.1668 17.8334 12.1668H17.7584C17.4902 12.1679 17.2282 12.2474 17.0046 12.3954C16.7811 12.5435 16.6057 12.7537 16.5 13.0002Z" stroke="black" stroke-width="1.66667" stroke-linecap="round" stroke-linejoin="round"/>
</g>
<defs>
<clipPath id="clip0_17_424">
<rect width="20" height="20" fill="white" transform="translate(0.333374 0.5)"/>
</clipPath>
</defs>
</svg>
