<svg width="92" height="21" viewBox="0 0 92 21" fill="none" xmlns="http://www.w3.org/2000/svg">
<path d="M0.675382 16.1765V15.4561C0.675382 14.5105 1.2382 13.8802 2.09368 13.8802H5.40306C6.10095 13.8802 6.52869 14.3304 6.8889 15.4561C7.00146 15.7938 7.22659 15.9513 7.56428 15.9739H8.4873C9.05012 15.9739 9.25273 15.5911 9.25273 14.8932V14.8707C9.25273 14.398 9.00509 13.9252 8.53233 13.7451L3.19681 11.5163C1.66594 10.9085 0.675382 9.60275 0.675382 7.53158V5.59548C0.675382 2.4437 2.38635 0.777758 5.15542 0.777758H10.8962C13.6877 0.777758 15.3762 2.4437 15.3762 5.59548V6.54102C15.3762 7.48655 14.8134 8.11691 13.9579 8.11691H10.671C9.88309 8.11691 9.3653 7.55409 9.23022 6.54102C9.16268 6.06825 8.93756 5.7981 8.4873 5.7981H7.56428C7.02397 5.7981 6.82136 6.18081 6.82136 6.87871V6.90122C6.82136 7.62163 7.09151 8.0944 7.65433 8.29701L12.8548 10.2556C14.4757 10.8635 15.3537 12.4394 15.3537 13.9702L15.3762 16.1765C15.3762 19.3283 13.6877 20.9942 10.8962 20.9942H5.15542C2.38635 20.9942 0.675382 19.3283 0.675382 16.1765ZM27.1704 7.23891V19.3057C27.1704 20.2513 26.6076 20.8816 25.7521 20.8816H21.6548C20.8218 20.8816 20.2365 20.2513 20.2365 19.3057V7.23891H17.8051C16.9721 7.23891 16.3868 6.60856 16.3868 5.66302V2.46621C16.3868 1.52068 16.9721 0.890321 17.8051 0.890321H29.6018C30.4573 0.890321 31.0201 1.52068 31.0201 2.46621V5.66302C31.0201 6.60856 30.4573 7.23891 29.6018 7.23891H27.1704ZM44.6783 2.4437L47.1772 19.3283C47.3123 20.2513 46.8395 20.8816 45.984 20.8816H42.6972C41.8417 20.8816 41.2113 20.2513 41.0762 19.3283L40.7836 17.0094H37.5192L37.2491 19.3283C37.1365 20.2513 36.5062 20.8816 35.6507 20.8816H32.3638C31.5083 20.8816 31.0356 20.2513 31.1706 19.3283L33.647 2.4437C33.7821 1.52068 34.4575 0.890321 35.313 0.890321H43.0348C43.8903 0.890321 44.5432 1.52068 44.6783 2.4437ZM38.1721 11.7865H40.1532L39.4778 6.1583H38.87L38.1721 11.7865ZM60.9965 11.0211V13.5425C60.9965 14.488 60.4337 15.1184 59.5782 15.1184H54.7154V19.3057C54.7154 20.2513 54.1526 20.8816 53.2971 20.8816H49.6276C48.7721 20.8816 48.2093 20.2513 48.2093 19.3057V2.46621C48.2093 1.52068 48.7721 0.890321 49.6276 0.890321H59.5782C60.4337 0.890321 60.9965 1.52068 60.9965 2.46621V4.98764C60.9965 5.93317 60.4337 6.42846 59.5782 6.56353C57.9122 6.83368 56.3364 6.8562 54.7154 6.56353V9.44516C56.3364 9.76034 57.9573 9.78285 59.5782 9.44516C60.4112 9.26506 60.9965 10.0755 60.9965 11.0211ZM76.3261 7.75671V19.3057C76.3261 20.2513 75.7407 20.8816 74.9078 20.8816H72.4314C71.5759 20.8816 70.4277 20.3188 69.6173 20.6115C69.032 20.8141 68.3341 20.9492 67.5911 20.9492H66.3755C63.5839 20.9492 62.3006 19.5084 62.3006 16.3566V7.75671C62.3006 6.81117 62.8635 6.18081 63.7189 6.18081H66.8932C67.7262 6.18081 68.199 6.8562 68.3115 7.75671C68.5817 9.76034 68.6943 13.1598 68.0414 15.7037H69.955C70.6529 13.2273 70.5628 9.89542 70.2702 7.75671C70.1576 6.8562 70.833 6.18081 71.6885 6.18081H74.9078C75.7407 6.18081 76.3261 6.81117 76.3261 7.75671ZM84.0822 2.46621V19.3057C84.0822 20.2513 83.4969 20.8816 82.6639 20.8816H79.1745C78.319 20.8816 77.7562 20.2513 77.7562 19.3057V2.46621C77.7562 1.52068 78.319 0.890321 79.1745 0.890321H82.6639C83.4969 0.890321 84.0822 1.52068 84.0822 2.46621ZM91.843 2.46621V19.3057C91.843 20.2513 91.2576 20.8816 90.4247 20.8816H86.9352C86.0797 20.8816 85.5169 20.2513 85.5169 19.3057V2.46621C85.5169 1.52068 86.0797 0.890321 86.9352 0.890321H90.4247C91.2576 0.890321 91.843 1.52068 91.843 2.46621Z" fill="#1E7E1C"/>
</svg>
